<?xml version="1.0" encoding="UTF-8"?>
<svg xmlns="http://www.w3.org/2000/svg" xmlns:xlink="http://www.w3.org/1999/xlink" width="162px" height="123px" viewBox="0 0 162 123" version="1.1">
<defs>
<filter id="alpha" filterUnits="objectBoundingBox" x="0%" y="0%" width="100%" height="100%">
  <feColorMatrix type="matrix" in="SourceGraphic" values="0 0 0 0 1 0 0 0 0 1 0 0 0 0 1 0 0 0 1 0"/>
</filter>
<mask id="mask0">
  <g filter="url(#alpha)">
<rect x="0" y="0" width="162" height="123" style="fill:rgb(0%,0%,0%);fill-opacity:0.831373;stroke:none;"/>
  </g>
</mask>
<clipPath id="clip1">
  <rect x="0" y="0" width="162" height="123"/>
</clipPath>
<g id="surface5" clip-path="url(#clip1)">
<path style="fill-rule:nonzero;fill:rgb(3.921569%,74.901962%,72.156864%);fill-opacity:1;stroke-width:1;stroke-linecap:butt;stroke-linejoin:miter;stroke:rgb(3.921569%,74.901962%,72.156864%);stroke-opacity:1;stroke-miterlimit:4;" d="M 88.497203 175.005716 L 119.500289 176.000381 L 120.496817 175.005716 L 143.5 175.005716 L 144.496528 176.000381 L 176.994406 176.000381 L 176.994406 257.493807 L 175.499614 258.999619 L 88.497203 259.994284 L 86.005883 258.999619 L 84.995515 252.506669 C 86.670235 251.49819 87.002411 249.163491 86.005883 245.502572 L 84.995515 244.494093 L 84.995515 186.499619 L 86.005883 185.504954 L 86.005883 176.000381 Z M 110.005594 197.993521 L 108.995226 201.005145 L 124.995033 217.002668 L 124.995033 219.005812 L 108.995226 235.003335 L 108.995226 235.997999 L 112.995177 235.003335 L 115.002074 232.005526 C 116.330777 232.668636 116.662953 232.005526 115.998601 230.002382 L 118.005498 230.002382 L 118.005498 228.993902 L 122.005449 225.996094 L 122.005449 224.006764 L 123.998505 224.006764 C 123.334153 222.00362 123.998505 221.326696 126.005401 222.00362 L 128.994985 217.997332 L 127.001929 214.999524 L 124.995033 212.99638 L 119.002025 206.006098 Z M 152.994695 233.994855 L 151.998167 235.003335 L 134.005305 235.997999 L 151.998167 235.997999 L 152.994695 237.006479 C 155.001591 236.329554 155.001591 235.334889 152.994695 233.994855 Z M 152.994695 233.994855 " transform="matrix(0.28223,0,0,0.282759,0,0)"/>
</g>
<mask id="mask1">
  <g filter="url(#alpha)">
<rect x="0" y="0" width="162" height="123" style="fill:rgb(0%,0%,0%);fill-opacity:0.831373;stroke:none;"/>
  </g>
</mask>
<clipPath id="clip2">
  <rect x="0" y="0" width="162" height="123"/>
</clipPath>
<g id="surface8" clip-path="url(#clip2)">
<path style="fill-rule:nonzero;fill:rgb(3.921569%,74.901962%,72.156864%);fill-opacity:1;stroke-width:1;stroke-linecap:butt;stroke-linejoin:miter;stroke:rgb(3.921569%,74.901962%,72.156864%);stroke-opacity:1;stroke-miterlimit:4;" d="M 321.504774 191.997904 L 322.501302 193.006383 L 341.504533 193.006383 C 347.026958 193.531345 350.860822 195.700267 353.006125 199.499333 C 354.805411 202.027439 355.137587 206.033727 354.002652 211.504383 L 350.999228 217.002668 L 345.504485 220.000476 L 334.501157 222.00362 L 332.494261 220.995141 L 329.504678 222.00362 L 327.497782 222.00362 L 325.504726 220.995141 L 325.006462 243.002096 C 321.933835 243.872428 319.926939 243.36128 318.999614 241.496284 L 318.003086 235.500667 L 318.999614 234.506002 L 318.999614 222.500953 L 318.003086 221.506288 L 318.003086 209.501239 L 318.999614 207.498095 L 318.999614 205.49495 L 318.003086 200.493998 L 318.999614 199.499333 L 318.999614 193.006383 Z M 325.006462 197.993521 L 325.006462 215.994188 L 342.002797 215.994188 L 346.002749 214.004859 L 347.995804 212.001715 L 347.995804 202.994474 L 342.002797 197.993521 Z M 325.006462 197.993521 " transform="matrix(0.28223,0,0,0.282759,0,0)"/>
</g>
<mask id="mask2">
  <g filter="url(#alpha)">
<rect x="0" y="0" width="162" height="123" style="fill:rgb(0%,0%,0%);fill-opacity:0.831373;stroke:none;"/>
  </g>
</mask>
<clipPath id="clip3">
  <rect x="0" y="0" width="162" height="123"/>
</clipPath>
<g id="surface11" clip-path="url(#clip3)">
<path style="fill-rule:nonzero;fill:rgb(3.921569%,74.901962%,72.156864%);fill-opacity:1;stroke-width:1;stroke-linecap:butt;stroke-linejoin:miter;stroke:rgb(3.921569%,74.901962%,72.156864%);stroke-opacity:1;stroke-miterlimit:4;" d="M 198.004533 193.006383 L 222.502508 193.006383 L 231.000675 196.004192 L 232.495467 199.002001 C 234.03178 198.532298 234.530044 199.02963 234.004099 200.493998 L 238.004051 208.506574 L 239.000579 222.500953 C 237.533468 223.30221 237.201292 225.305354 238.004051 228.49657 L 235.000627 234.506002 L 229.505883 240.004287 L 220.495611 243.002096 L 198.004533 243.002096 Z M 203.001013 197.993521 L 203.001013 238.001143 L 220.993875 238.001143 L 226.004196 235.997999 C 229.339796 233.331745 231.665027 229.670827 232.993731 225.001429 L 232.993731 212.001715 L 230.004147 204.002954 C 227.997251 200.659775 225.339844 198.670446 222.004244 197.993521 Z M 203.001013 197.993521 " transform="matrix(0.28223,0,0,0.282759,0,0)"/>
</g>
<mask id="mask3">
  <g filter="url(#alpha)">
<rect x="0" y="0" width="162" height="123" style="fill:rgb(0%,0%,0%);fill-opacity:0.831373;stroke:none;"/>
  </g>
</mask>
<clipPath id="clip4">
  <rect x="0" y="0" width="162" height="123"/>
</clipPath>
<g id="surface14" clip-path="url(#clip4)">
<path style="fill-rule:nonzero;fill:rgb(3.921569%,74.901962%,72.156864%);fill-opacity:1;stroke-width:1;stroke-linecap:butt;stroke-linejoin:miter;stroke:rgb(3.921569%,74.901962%,72.156864%);stroke-opacity:1;stroke-miterlimit:4;" d="M 426.998312 193.006383 L 430.998264 193.503716 L 430.998264 237.503811 L 431.994792 239.49314 L 430.998264 243.002096 C 426.998312 244.535537 425.669608 243.029726 426.998312 238.498476 L 423.496624 240.998952 L 417.503617 243.996761 L 409.503713 243.996761 L 401.005546 238.498476 L 398.002122 232.502858 L 398.002122 217.5 L 404.493393 207.995427 L 411.496769 204.997618 L 415.496721 204.997618 L 425.50352 209.003906 L 426.998312 207.498095 Z M 414.001929 209.998571 L 409.005449 212.001715 C 405.66985 214.004859 403.662953 217.334223 402.998601 222.00362 C 402.33425 227.336128 402.998601 231.660156 405.005498 235.003335 L 413.005401 238.995808 L 418.001881 238.995808 L 422.99836 235.997999 L 426.998312 225.001429 L 422.99836 214.999524 L 417.005353 209.998571 Z M 414.001929 209.998571 " transform="matrix(0.28223,0,0,0.282759,0,0)"/>
</g>
<mask id="mask4">
  <g filter="url(#alpha)">
<rect x="0" y="0" width="162" height="123" style="fill:rgb(0%,0%,0%);fill-opacity:0.831373;stroke:none;"/>
  </g>
</mask>
<clipPath id="clip5">
  <rect x="0" y="0" width="162" height="123"/>
</clipPath>
<g id="surface17" clip-path="url(#clip5)">
<path style="fill-rule:nonzero;fill:rgb(3.921569%,74.901962%,72.156864%);fill-opacity:1;stroke-width:1;stroke-linecap:butt;stroke-linejoin:miter;stroke:rgb(3.921569%,74.901962%,72.156864%);stroke-opacity:1;stroke-miterlimit:4;" d="M 441.005064 193.006383 L 446.001543 193.006383 L 446.001543 197.496189 C 447.468654 198.366521 447.302566 199.195408 445.503279 199.996665 C 441.904707 201.267626 440.396074 200.770293 441.005064 198.504668 L 439.994695 196.501524 Z M 441.005064 193.006383 " transform="matrix(0.28223,0,0,0.282759,0,0)"/>
</g>
<mask id="mask5">
  <g filter="url(#alpha)">
<rect x="0" y="0" width="162" height="123" style="fill:rgb(0%,0%,0%);fill-opacity:0.831373;stroke:none;"/>
  </g>
</mask>
<clipPath id="clip6">
  <rect x="0" y="0" width="162" height="123"/>
</clipPath>
<g id="surface20" clip-path="url(#clip6)">
<path style="fill-rule:nonzero;fill:rgb(3.921569%,74.901962%,72.156864%);fill-opacity:1;stroke-width:1;stroke-linecap:butt;stroke-linejoin:miter;stroke:rgb(3.921569%,74.901962%,72.156864%);stroke-opacity:1;stroke-miterlimit:4;" d="M 260.495129 204.997618 C 266.903356 205.260099 271.401572 207.429021 274.003617 211.504383 C 276.799431 214.90282 277.795959 219.737995 276.9932 225.996094 L 272.494985 227.004573 C 271.498457 225.332984 269.173225 225.001429 265.505449 225.996094 C 264.370515 227.86109 261.699267 228.20646 257.505546 227.004573 C 256.702787 225.540206 254.695891 225.194836 251.498698 225.996094 C 250.031588 226.53487 249.533324 228.026867 250.003906 230.499714 L 255.49865 238.001143 L 264.495081 238.995808 L 270.003665 235.500667 L 272.494985 230.997046 C 276.439574 229.601753 277.934365 230.43064 276.9932 233.497523 L 270.501929 241.993617 L 265.505449 243.996761 L 257.505546 243.996761 L 250.003906 240.998952 L 246.003954 234.506002 L 243.997058 227.501905 L 243.997058 225.498761 L 244.993586 223.495617 L 244.993586 221.506288 C 245.270399 215.773152 247.097367 211.601086 250.50217 209.003906 L 255.49865 206.006098 Z M 259.996865 209.998571 L 256.993441 210.993236 C 252.99349 212.33327 250.668258 215.662633 250.003906 220.995141 L 251.996962 222.00362 L 271.000193 222.00362 L 270.003665 214.999524 L 263.996817 209.998571 Z M 259.996865 209.998571 " transform="matrix(0.28223,0,0,0.282759,0,0)"/>
</g>
<mask id="mask6">
  <g filter="url(#alpha)">
<rect x="0" y="0" width="162" height="123" style="fill:rgb(0%,0%,0%);fill-opacity:0.831373;stroke:none;"/>
  </g>
</mask>
<clipPath id="clip7">
  <rect x="0" y="0" width="162" height="123"/>
</clipPath>
<g id="surface23" clip-path="url(#clip7)">
<path style="fill-rule:nonzero;fill:rgb(3.921569%,74.901962%,72.156864%);fill-opacity:1;stroke-width:1;stroke-linecap:butt;stroke-linejoin:miter;stroke:rgb(3.921569%,74.901962%,72.156864%);stroke-opacity:1;stroke-miterlimit:4;" d="M 373.504147 204.997618 L 381.504051 206.006098 L 389.005691 212.499047 C 391.137153 215.372523 392.133681 219.364996 391.995274 224.504097 C 391.538532 226.700648 389.697724 227.529535 386.50053 227.004573 L 385.504003 225.996094 L 372.493779 225.996094 L 369.504196 227.004573 L 365.00598 225.996094 L 363.995611 228.49657 L 365.00598 232.502858 L 368.493827 237.006479 C 370.500723 238.995808 373.836323 239.672732 378.500627 238.995808 L 385.005739 234.506002 L 386.50053 230.997046 C 390.431279 229.601753 391.939911 230.43064 390.998746 233.497523 L 384.493634 241.993617 C 381.365644 244.203982 376.701341 244.867092 370.500723 243.996761 L 361.006028 236.495332 C 358.736159 232.433784 358.071807 226.769722 358.999132 219.503144 C 360.20327 214.364043 362.694589 210.537348 366.500772 207.995427 Z M 374.002411 209.998571 L 370.002459 212.001715 L 365.00598 217.997332 C 364.327787 220.663586 364.659963 222.00362 366.002508 222.00362 L 386.002267 222.00362 L 385.005739 215.994188 L 378.002363 209.998571 Z M 374.002411 209.998571 " transform="matrix(0.28223,0,0,0.282759,0,0)"/>
</g>
<mask id="mask7">
  <g filter="url(#alpha)">
<rect x="0" y="0" width="162" height="123" style="fill:rgb(0%,0%,0%);fill-opacity:0.831373;stroke:none;"/>
  </g>
</mask>
<clipPath id="clip8">
  <rect x="0" y="0" width="162" height="123"/>
</clipPath>
<g id="surface26" clip-path="url(#clip8)">
<path style="fill-rule:nonzero;fill:rgb(3.921569%,74.901962%,72.156864%);fill-opacity:1;stroke-width:1;stroke-linecap:butt;stroke-linejoin:miter;stroke:rgb(3.921569%,74.901962%,72.156864%);stroke-opacity:1;stroke-miterlimit:4;" d="M 467.496094 204.997618 C 474.167294 204.666063 478.997685 206.171875 482.001109 209.501239 L 483.994165 213.493712 L 483.994165 236.495332 L 485.004533 238.995808 L 489.004485 240.50162 L 487.994117 243.002096 L 485.502797 243.996761 L 482.499373 243.002096 L 479.994213 241.496284 C 480.727768 239.299733 480.229504 238.470846 478.499421 238.995808 L 470.499518 243.996761 L 462.499614 243.996761 L 454.997975 238.498476 L 454.001447 230.499714 L 457.503135 225.001429 L 464.50651 222.00362 L 475.495997 220.995141 L 478.997685 218.494665 L 478.001157 216.505335 L 478.001157 214.502191 L 475.495997 210.993236 L 468.506462 209.998571 L 462.00135 213.493712 L 461.004823 217.997332 L 455.994502 217.997332 L 455.994502 214.502191 L 460.506559 207.995427 Z M 466.99783 225.996094 L 463.994406 227.004573 C 459.994454 228.330793 458.66575 231.660156 459.994454 237.006479 L 465.004774 238.995808 C 470.33343 238.995808 474.333382 238.001143 477.00463 235.997999 L 478.001157 233.000191 L 478.001157 230.997046 L 478.997685 227.004573 Z M 466.99783 225.996094 " transform="matrix(0.28223,0,0,0.282759,0,0)"/>
</g>
<mask id="mask8">
  <g filter="url(#alpha)">
<rect x="0" y="0" width="162" height="123" style="fill:rgb(0%,0%,0%);fill-opacity:0.831373;stroke:none;"/>
  </g>
</mask>
<clipPath id="clip9">
  <rect x="0" y="0" width="162" height="123"/>
</clipPath>
<g id="surface29" clip-path="url(#clip9)">
<path style="fill-rule:nonzero;fill:rgb(3.921569%,74.901962%,72.156864%);fill-opacity:1;stroke-width:1;stroke-linecap:butt;stroke-linejoin:miter;stroke:rgb(3.921569%,74.901962%,72.156864%);stroke-opacity:1;stroke-miterlimit:4;" d="M 282.501784 206.006098 C 285.436005 204.997618 286.598621 205.49495 286.003472 207.498095 L 295.996431 233.994855 C 297.795718 234.727039 298.460069 234.229707 298.003328 232.502858 L 309.504919 206.006098 L 313.006607 207.498095 L 311.996238 213.493712 L 307.996287 220.497809 L 302.003279 238.498476 L 298.501591 243.002096 C 296.037953 243.527058 294.529321 243.029726 294.003376 241.496284 L 280.993152 207.498095 Z M 282.501784 206.006098 " transform="matrix(0.28223,0,0,0.282759,0,0)"/>
</g>
<mask id="mask9">
  <g filter="url(#alpha)">
<rect x="0" y="0" width="162" height="123" style="fill:rgb(0%,0%,0%);fill-opacity:0.831373;stroke:none;"/>
  </g>
</mask>
<clipPath id="clip10">
  <rect x="0" y="0" width="162" height="123"/>
</clipPath>
<g id="surface32" clip-path="url(#clip10)">
<path style="fill-rule:nonzero;fill:rgb(3.921569%,74.901962%,72.156864%);fill-opacity:1;stroke-width:1;stroke-linecap:butt;stroke-linejoin:miter;stroke:rgb(3.921569%,74.901962%,72.156864%);stroke-opacity:1;stroke-miterlimit:4;" d="M 442.499855 206.006098 C 445.032697 205.536395 446.527488 206.033727 446.998071 207.498095 L 446.998071 241.496284 L 445.503279 243.002096 C 443.039641 243.527058 441.531009 243.029726 441.005064 241.496284 L 441.005064 207.498095 Z M 442.499855 206.006098 " transform="matrix(0.28223,0,0,0.282759,0,0)"/>
</g>
</defs>
<g id="surface1">
<use xlink:href="#surface5" mask="url(#mask0)"/>
<use xlink:href="#surface8" mask="url(#mask1)"/>
<use xlink:href="#surface11" mask="url(#mask2)"/>
<use xlink:href="#surface14" mask="url(#mask3)"/>
<use xlink:href="#surface17" mask="url(#mask4)"/>
<use xlink:href="#surface20" mask="url(#mask5)"/>
<use xlink:href="#surface23" mask="url(#mask6)"/>
<use xlink:href="#surface26" mask="url(#mask7)"/>
<use xlink:href="#surface29" mask="url(#mask8)"/>
<use xlink:href="#surface32" mask="url(#mask9)"/>
</g>
</svg>
